<svg version="1.1" viewBox="0.0 0.0 960.0 720.0" fill="none" stroke="none" stroke-linecap="square" stroke-miterlimit="10" xmlns:xlink="http://www.w3.org/1999/xlink" xmlns="http://www.w3.org/2000/svg"><clipPath id="p.0"><path d="m0 0l960.0 0l0 720.0l-960.0 0l0 -720.0z" clip-rule="nonzero"/></clipPath><g clip-path="url(#p.0)"><path fill="#000000" fill-opacity="0.0" d="m0 0l960.0 0l0 720.0l-960.0 0z" fill-rule="evenodd"/><defs><radialGradient id="p.1" gradientUnits="userSpaceOnUse" gradientTransform="matrix(30.615097005142037 -2.55791933202714 2.55791933202714 30.615097005142037 0.0 0.0)" spreadMethod="pad" cx="2.0767678390003836" cy="3.887962513435297" fx="2.0767678390003836" fy="3.887962513435297" r="30.615097045898438"><stop offset="0.0" stop-color="#d4e5f5"/><stop offset="0.49" stop-color="#ea9999"/><stop offset="1.0" stop-color="#70a4d5"/></radialGradient></defs><path fill="url(#p.1)" d="m80.3269 194.98732l0 0c-3.748581 -44.88437 29.598465 -84.31041 74.482704 -88.06053l45.39131 -3.792488l0 0l189.99211 -15.874016l362.0449 -30.249176c21.554138 -1.8008728 42.940613 5.0344048 59.45459 19.002144c16.513977 13.967735 26.802734 33.923767 28.602905 55.478004l16.968506 203.17586l0 0l10.181091 121.90552l0 0c3.7485962 44.88437 -29.59845 84.310425 -74.48273 88.06055l-362.04483 30.249146l-89.902985 68.88959l-100.08914 -53.015564l-45.39131 3.7924805c-44.884247 3.750122 -84.30893 -29.595764 -88.05751 -74.48016l0 0l-10.181099 -121.90549l0 0z" fill-rule="evenodd"/><path stroke="#000000" stroke-width="1.0" stroke-linejoin="round" stroke-linecap="butt" d="m80.3269 194.98732l0 0c-3.748581 -44.88437 29.598465 -84.31041 74.482704 -88.06053l45.39131 -3.792488l0 0l189.99211 -15.874016l362.0449 -30.249176c21.554138 -1.8008728 42.940613 5.0344048 59.45459 19.002144c16.513977 13.967735 26.802734 33.923767 28.602905 55.478004l16.968506 203.17586l0 0l10.181091 121.90552l0 0c3.7485962 44.88437 -29.59845 84.310425 -74.48273 88.06055l-362.04483 30.249146l-89.902985 68.88959l-100.08914 -53.015564l-45.39131 3.7924805c-44.884247 3.750122 -84.30893 -29.595764 -88.05751 -74.48016l0 0l-10.181099 -121.90549l0 0z" fill-rule="evenodd"/><path fill="#000000" fill-opacity="0.0" d="m175.33224 220.22356l675.02356 -56.40944l14.519714 173.92126l-675.0236 56.409424z" fill-rule="evenodd"/><path fill="#666666" d="m231.20995 347.89374l-42.999405 -88.35104l13.079407 -1.0930176l29.26744 64.348724q3.5305786 7.732849 6.043701 14.547241q1.4936676 -7.6509705 3.6724243 -15.359161l19.126389 -68.39285l12.332001 -1.0305481l-28.127655 94.29492l-12.394302 1.0357361zm59.231064 -4.9497375l-7.6227417 -91.30737l66.01987 -5.5170593l0.89956665 10.775024l-53.93701 4.507324l2.3346558 27.96521l50.511444 -4.2210693l0.89434814 10.712738l-50.511444 4.2210693l2.594635 31.079407l56.054626 -4.6842957l0.89953613 10.774994l-68.13748 5.694031zm85.01614 -7.1045227l-7.622711 -91.30736l40.483887 -3.3831024q12.2074585 -1.0201416 18.765686 0.9091644q6.558258 1.929306 10.877472 7.840149q4.319214 5.910843 4.948395 13.447128q0.8111267 9.716187 -4.923065 16.906189q-5.7342224 7.1900024 -18.725128 10.094421q4.9881897 1.903717 7.666687 3.9377441q5.6996155 4.41568 11.041473 11.3072815l17.956818 23.523834l-15.1970215 1.2699585l-13.668793 -17.986694q-5.9804077 -7.7789917 -9.769928 -11.85257q-3.7895508 -4.073578 -6.6444397 -5.591095q-2.854889 -1.5175171 -5.714813 -1.9684143q-2.0917358 -0.2642517 -6.76297 0.12612915l-14.013641 1.171051l3.3849792 40.54648l-12.082886 1.0097046zm7.824341 -52.019775l25.971985 -2.1703796q8.28363 -0.6922302 12.811859 -2.7953796q4.5282288 -2.1031494 6.6426697 -6.07428q2.1144714 -3.9711304 1.7452698 -8.3932495q-0.54074097 -6.477478 -5.5914917 -10.257492q-5.0507507 -3.780014 -15.20285 -2.9316406l-28.899261 2.4150085l2.52182 30.207413zm83.606964 44.37918l-7.622711 -91.30737l34.255585 -2.8626251q10.4635315 -0.8744049 17.016632 1.368927q6.5531006 2.2433167 10.615356 7.705261q4.062195 5.4619293 4.5874023 11.752548q0.48876953 5.854645 -2.2561035 11.289581q-2.744873 5.434967 -8.894836 9.147522q8.48645 1.7368164 13.428467 7.2192993q4.9419556 5.482483 5.607544 13.454742q0.5355835 6.4151917 -1.713562 12.153687q-2.2491455 5.7384644 -5.9856567 9.061188q-3.7365112 3.3226929 -9.619446 5.350891q-5.882904 2.0281982 -14.602509 2.7568665l-34.816162 2.9094849zm7.6631775 -53.95056l19.743683 -1.6499023q8.034485 -0.67141724 11.433929 -2.021698q4.4945374 -1.7554016 6.5649414 -5.127014q2.0704346 -3.371643 1.670105 -8.16745q-0.37957764 -4.546692 -2.8480835 -7.8212585q-2.4684753 -3.2745514 -6.623474 -4.213043q-4.1549683 -0.9385071 -13.9956665 -0.1161499l-18.248901 1.5249939l2.3034668 27.591522zm3.520172 42.165802l22.733246 -1.8997192q5.8546143 -0.4892578 8.184967 -1.1230164q4.110565 -1.0961304 6.7676697 -3.0742798q2.6571655 -1.9781494 4.1851807 -5.4612427q1.5280151 -3.4830933 1.1640625 -7.842926q-0.4263916 -5.107239 -3.3568726 -8.656769q-2.93042 -3.5495605 -7.6979065 -4.687744q-4.7674866 -1.1381836 -13.487091 -0.40951538l-21.113892 1.7644348l2.620636 31.390778zm79.43826 4.2118225l-1.065918 -12.768097l12.768005 -1.0669861l1.065918 12.768097l-12.768005 1.0669861zm42.539246 -3.5548706l-1.065918 -12.768097l12.768005 -1.0669556l1.065918 12.768066l-12.768005 1.0669861zm42.47693 -3.549652l-1.065918 -12.768097l12.830261 -1.0721741l1.065979 12.768097l-12.830322 1.0721741z" fill-rule="nonzero"/></g></svg>